HIERARCHY
ROOT Pelvis
{
	OFFSET 0.000000 0.000000 0.000000
	CHANNELS 6 Xposition Yposition Zposition Xrotation Yrotation Zrotation
	JOINT LeftUpLeg_virtual
	{
		OFFSET 0.000000 0.000000 0.000000
		CHANNELS 3 Xrotation Yrotation Zrotation
		JOINT LeftUpLeg
		{
			OFFSET 18.735201 -5.666702 -4.541200
			CHANNELS 3 Xrotation Yrotation Zrotation
			JOINT LeftLeg
			{
				OFFSET -0.021200 -31.938179 0.493100
				CHANNELS 3 Xrotation Yrotation Zrotation
				JOINT LeftFoot
				{
					OFFSET 0.021200 -31.938179 -4.336299
					CHANNELS 3 Xrotation Yrotation Zrotation
					JOINT LeftToeBase
					{
						OFFSET 0.943001 -26.722000 15.023500
						CHANNELS 3 Xrotation Yrotation Zrotation
						End Site
						{
							OFFSET 0 0 0
						}
					}
				}
			}
		}
	}
	JOINT RightUpLeg_virtual
	{
		OFFSET 0.000000 0.000000 0.000000
		CHANNELS 3 Xrotation Yrotation Zrotation
		JOINT RightUpLeg
		{
			OFFSET -18.735201 -5.666702 -4.541200
			CHANNELS 3 Xrotation Yrotation Zrotation
			JOINT RightLeg
			{
				OFFSET 0.018946 -31.938133 0.493100
				CHANNELS 3 Xrotation Yrotation Zrotation
				JOINT RightFoot
				{
					OFFSET -0.018946 -31.938126 -4.336299
					CHANNELS 3 Xrotation Yrotation Zrotation
					JOINT RightToeBase
					{
						OFFSET -0.943001 -26.722004 15.023500
						CHANNELS 3 Xrotation Yrotation Zrotation
						End Site
						{
							OFFSET 0 0 0
						}
					}
				}
			}
		}
	}
	JOINT Hips_virtual
	{
		OFFSET 0.000000 0.000000 0.000000
		CHANNELS 3 Xrotation Yrotation Zrotation
		JOINT Hips
		{
			OFFSET -0.000000 -0.000000 -0.000000
			CHANNELS 3 Xrotation Yrotation Zrotation
			JOINT Spine
			{
				OFFSET 0.000000 10.199997 -0.299500
				CHANNELS 3 Xrotation Yrotation Zrotation
				JOINT Spine1
				{
					OFFSET 0.000000 11.900002 -1.516600
					CHANNELS 3 Xrotation Yrotation Zrotation
					JOINT Spine2
					{
						OFFSET 0.000000 13.600006 -2.842500
						CHANNELS 3 Xrotation Yrotation Zrotation
						JOINT Neck_virtual
						{
							OFFSET 0.000000 0.000000 0.000000
							CHANNELS 3 Xrotation Yrotation Zrotation
							JOINT Neck
							{
								OFFSET 0.000000 9.624100 -2.890100
								CHANNELS 3 Xrotation Yrotation Zrotation
								JOINT Head
								{
									OFFSET 0.000000 14.068802 -1.351900
									CHANNELS 3 Xrotation Yrotation Zrotation
									End Site
									{
										OFFSET 0 0 0
									}
								}
							}
						}
						JOINT LeftShoulder_virtual
						{
							OFFSET 0.000000 0.000000 0.000000
							CHANNELS 3 Xrotation Yrotation Zrotation
							JOINT LeftShoulder
							{
								OFFSET 15.263000 10.923401 -0.547700
								CHANNELS 3 Xrotation Yrotation Zrotation
								JOINT LeftArm
								{
									OFFSET 25.438599 -2.830597 -13.032500
									CHANNELS 3 Xrotation Yrotation Zrotation
									JOINT LeftForeArm
									{
										OFFSET 29.960503 0.000000 0.000000
										CHANNELS 3 Xrotation Yrotation Zrotation
										JOINT LeftHand
										{
											OFFSET 27.849251 0.000000 0.000000
											CHANNELS 3 Xrotation Yrotation Zrotation
											End Site
											{
												OFFSET 0 0 0
											}
										}
									}
								}
							}
						}
						JOINT RightShoulder_virtual
						{
							OFFSET 0.000000 0.000000 0.000000
							CHANNELS 3 Xrotation Yrotation Zrotation
							JOINT RightShoulder
							{
								OFFSET -15.263000 10.923401 -0.547700
								CHANNELS 3 Xrotation Yrotation Zrotation
								JOINT RightArm
								{
									OFFSET -25.438599 -2.830597 -13.032500
									CHANNELS 3 Xrotation Yrotation Zrotation
									JOINT RightForeArm
									{
										OFFSET -29.960503 0.000000 0.000000
										CHANNELS 3 Xrotation Yrotation Zrotation
										JOINT RightHand
										{
											OFFSET -27.849251 0.000000 0.000000
											CHANNELS 3 Xrotation Yrotation Zrotation
											End Site
											{
												OFFSET 0 0 0
											}
										}
									}
								}
							}
						}
					}
				}
			}
		}
	}
}
MOTION
Frames: 13
Frame Time: 0.03333333
-101.024231 79.084770 -2.052992 0.000000 0.000000 0.000000 9.719081 -76.869613 12.389005 -44.302516 -12.627848 16.468950 51.879183 -5.942008 -9.762222 -0.730286 -1.429379 -24.711667 0.000000 0.000000 0.000000 3.761698 -33.175660 -2.400805 -29.478229 -12.390290 -22.131638 63.891837 8.719991 -1.946144 -0.165480 6.385131 16.680230 0.000000 0.000000 0.000000 7.211190 -18.932962 4.032441 -1.065487 -38.058497 5.382143 21.623855 1.503600 -5.248159 14.610138 1.464722 -5.151010 0.000000 0.000000 0.000000 10.366097 5.024022 -4.502964 1.000902 3.143821 0.205717 0.000000 0.000000 0.000000 13.390349 1.839044 -3.410177 1.819386 -8.181908 -0.398934 -24.383458 -1.746577 -34.465059 -5.383040 -51.598579 2.043468 0.000000 0.000000 0.000000 14.023089 5.460938 -2.675266 2.997202 8.702911 0.913221 -35.057107 1.921219 30.519437 -53.320708 74.061244 51.313425 0.000000 0.000000 0.000000 
-102.122299 79.028572 -1.925884 0.000000 0.000000 0.000000 9.388504 -76.341625 11.944061 -44.199144 -12.384040 16.458236 52.083116 -6.282351 -9.851112 -0.663904 -1.716221 -25.083841 0.000000 0.000000 0.000000 3.073027 -34.109217 -3.130968 -30.135423 -12.365808 -22.775442 62.715043 7.766150 -1.975455 -0.603367 5.539286 15.661721 0.000000 0.000000 0.000000 6.831537 -19.783610 3.998581 -1.159731 -37.754226 5.048188 21.496653 1.218519 -5.513015 14.497054 1.299964 -5.312647 0.000000 0.000000 0.000000 10.177323 4.886387 -4.818888 0.938830 3.217113 -0.011553 0.000000 0.000000 0.000000 13.157124 1.559554 -3.638438 1.627731 -8.372180 -1.573569 -24.779511 -2.236129 -34.384156 -5.446102 -51.715354 1.981768 0.000000 0.000000 0.000000 13.810187 5.290211 -2.811668 3.007757 8.423850 0.215170 -34.123420 1.138640 31.209788 -56.384277 74.704033 54.665163 0.000000 0.000000 0.000000 
-103.224747 78.956467 -1.775218 0.000000 0.000000 0.000000 8.929302 -75.760445 11.395137 -44.129497 -12.133487 16.435261 52.222913 -6.619977 -9.883948 -0.651798 -2.022856 -25.373830 0.000000 0.000000 0.000000 2.533164 -34.966682 -3.745391 -30.602335 -12.380328 -23.315115 61.373252 6.922466 -2.024500 -1.186359 4.780256 14.712622 0.000000 0.000000 0.000000 6.426166 -20.616484 3.955797 -1.342323 -37.360288 4.684224 21.344524 0.946440 -5.744811 14.365834 1.142205 -5.450326 0.000000 0.000000 0.000000 9.971610 4.732602 -5.104240 0.872974 3.274317 -0.209593 0.000000 0.000000 0.000000 12.901357 1.281356 -3.882276 1.402984 -8.539846 -2.824742 -24.936884 -2.702145 -34.376390 -5.415714 -51.742501 1.934458 0.000000 0.000000 0.000000 13.567419 5.119336 -2.931846 2.971336 8.151486 -0.433374 -33.311816 0.299507 31.811852 -59.537318 75.233960 58.057769 0.000000 0.000000 0.000000 
-104.346657 78.843872 -1.608429 0.000000 0.000000 0.000000 8.321850 -75.149778 10.742498 -44.130088 -11.888470 16.402037 52.330130 -6.956241 -9.853228 -0.671038 -2.356103 -25.572343 0.000000 0.000000 0.000000 2.123161 -35.702075 -4.263965 -30.906213 -12.412566 -23.767720 60.017248 6.268407 -2.088960 -1.834051 4.186508 13.919133 0.000000 0.000000 0.000000 5.996728 -21.423524 3.902166 -1.620639 -36.883664 4.291750 21.172786 0.685633 -5.944856 14.219218 0.991325 -5.564700 0.000000 0.000000 0.000000 9.751651 4.564447 -5.355186 0.803642 3.315584 -0.386627 0.000000 0.000000 0.000000 12.629669 1.007318 -4.130117 1.155930 -8.684065 -4.101817 -24.848028 -3.143779 -34.401146 -5.279642 -51.674261 1.923650 0.000000 0.000000 0.000000 13.295381 4.947804 -3.034475 2.889540 7.881854 -1.027377 -32.629477 -0.573754 32.309100 -62.776433 75.669514 61.481538 0.000000 0.000000 0.000000 
-105.487350 78.678734 -1.433524 0.000000 0.000000 0.000000 7.576451 -74.520301 10.007470 -44.219526 -11.654816 16.365420 52.433747 -7.285537 -9.754535 -0.698074 -2.714849 -25.670139 0.000000 0.000000 0.000000 1.815147 -36.304778 -4.707852 -31.086780 -12.447655 -24.152389 58.763362 5.833624 -2.164472 -2.479606 3.790284 13.316523 0.000000 0.000000 0.000000 5.549101 -22.194582 3.837795 -1.974832 -36.330808 3.888374 20.989499 0.435208 -6.113418 14.061519 0.847444 -5.655918 0.000000 0.000000 0.000000 9.521735 4.385358 -5.569840 0.731962 3.342677 -0.541981 0.000000 0.000000 0.000000 12.348213 0.740274 -4.371888 0.896759 -8.803211 -5.360022 -24.521842 -3.558799 -34.432650 -5.038231 -51.511186 1.958340 0.000000 0.000000 0.000000 12.996503 4.775373 -3.119742 2.766722 7.613284 -1.567975 -32.073281 -1.455272 32.689272 -66.098561 76.028967 64.930893 0.000000 0.000000 0.000000 
-106.634789 78.462997 -1.258285 0.000000 0.000000 0.000000 6.730533 -73.870217 9.228195 -44.397159 -11.431670 16.335511 52.554518 -7.596402 -9.587883 -0.713384 -3.090047 -25.660263 0.000000 0.000000 0.000000 1.584571 -36.792597 -5.091859 -31.182170 -12.479977 -24.484854 57.688324 5.607499 -2.248704 -3.076320 3.586041 12.898913 0.000000 0.000000 0.000000 5.092349 -22.920407 3.764857 -2.366499 -35.710343 3.501088 20.803211 0.194737 -6.249754 13.897449 0.710677 -5.723633 0.000000 0.000000 0.000000 9.287319 4.199591 -5.748153 0.659772 3.358325 -0.676024 0.000000 0.000000 0.000000 12.061698 0.482501 -4.599680 0.633813 -8.896776 -6.563937 -23.984628 -3.944424 -34.461846 -4.704768 -51.261297 2.033708 0.000000 0.000000 0.000000 12.675213 4.602013 -3.189093 2.609879 7.345845 -2.061239 -31.634561 -2.320154 32.942702 -69.489545 76.327432 68.391394 0.000000 0.000000 0.000000 
-107.771210 78.211998 -1.088706 0.000000 0.000000 0.000000 5.838551 -73.187219 8.451015 -44.646508 -11.212621 16.323570 52.700800 -7.874428 -9.358999 -0.705395 -3.466479 -25.541308 0.000000 0.000000 0.000000 1.417795 -37.199840 -5.420465 -31.219214 -12.512909 -24.774049 56.828396 5.554865 -2.340915 -3.599640 3.544096 12.636143 0.000000 0.000000 0.000000 4.636828 -23.595370 3.686998 -2.750545 -35.034844 3.158042 20.620864 -0.036061 -6.352560 13.731081 0.580980 -5.767265 0.000000 0.000000 0.000000 9.054260 4.011455 -5.891565 0.589326 3.365574 -0.789970 0.000000 0.000000 0.000000 11.772979 0.235421 -4.807879 0.372983 -8.966516 -7.688366 -23.277821 -4.297915 -34.493043 -4.302542 -50.938622 2.134470 0.000000 0.000000 0.000000 12.337383 4.427853 -3.244803 2.427856 7.080615 -2.516252 -31.303870 -3.148414 33.061903 -72.916299 76.576557 71.830736 0.000000 0.000000 0.000000 
-108.878235 77.951477 -0.927486 0.000000 0.000000 0.000000 4.959533 -72.451081 7.721245 -44.940947 -10.987663 16.339983 52.867003 -8.105698 -9.079673 -0.672539 -3.825593 -25.319979 0.000000 0.000000 0.000000 1.313096 -37.565149 -5.688617 -31.210423 -12.555945 -25.021780 56.182418 5.631108 -2.440179 -4.045224 3.623749 12.489880 0.000000 0.000000 0.000000 4.192150 -24.218717 3.608354 -3.086575 -34.320335 2.881227 20.446550 -0.257397 -6.420631 13.565175 0.458139 -5.786389 0.000000 0.000000 0.000000 8.827920 3.824746 -6.002577 0.522905 3.367295 -0.885612 0.000000 0.000000 0.000000 11.483209 -0.000411 -4.992890 0.117845 -9.016578 -8.717164 -22.452440 -4.616884 -34.537333 -3.859736 -50.559707 2.240631 0.000000 0.000000 0.000000 11.989196 4.253202 -3.289339 2.229883 6.819184 -2.942365 -31.074468 -3.927696 33.043164 -76.324994 76.783969 75.196490 0.000000 0.000000 0.000000 
-109.940460 77.712662 -0.773470 0.000000 0.000000 0.000000 4.146268 -71.636909 7.075812 -45.249614 -10.745484 16.392560 53.035166 -8.279751 -8.766785 -0.622972 -4.148712 -25.011748 0.000000 0.000000 0.000000 1.276339 -37.922614 -5.886267 -31.157011 -12.620684 -25.225069 55.719143 5.792290 -2.544119 -4.424162 3.782750 12.423850 0.000000 0.000000 0.000000 3.765611 -24.794195 3.532513 -3.346755 -33.583624 2.681940 20.281265 -0.469224 -6.453519 13.401028 0.341932 -5.781105 0.000000 0.000000 0.000000 8.612384 3.642568 -6.084324 0.462415 3.365909 -0.965057 0.000000 0.000000 0.000000 11.192430 -0.225065 -5.152694 -0.129707 -9.052635 -9.641118 -21.561888 -4.899054 -34.605642 -3.404083 -50.139924 2.333251 0.000000 0.000000 0.000000 11.635810 4.078652 -3.324677 2.023919 6.563484 -3.346248 -30.943568 -4.654251 32.889820 -79.644527 76.954007 78.420168 0.000000 0.000000 0.000000 
-110.947136 77.526329 -0.622383 0.000000 0.000000 0.000000 3.437933 -70.719205 6.538521 -45.542281 -10.475539 16.485215 53.179337 -8.391455 -8.440251 -0.572174 -4.419942 -24.639545 0.000000 0.000000 0.000000 1.314487 -38.297106 -6.004025 -31.055207 -12.716917 -25.379653 55.387783 5.999957 -2.648971 -4.756652 3.982724 12.407453 0.000000 0.000000 0.000000 3.361524 -25.328309 3.461788 -3.518656 -32.838692 2.559792 20.123506 -0.670938 -6.452014 13.238719 0.232363 -5.752293 0.000000 0.000000 0.000000 8.409909 3.467412 -6.140211 0.409039 3.363352 -1.030472 0.000000 0.000000 0.000000 10.900307 -0.438835 -5.286456 -0.368617 -9.080399 -10.455890 -20.655204 -5.141678 -34.703856 -2.958956 -49.690453 2.398372 0.000000 0.000000 0.000000 11.280384 3.905179 -3.351818 1.815456 6.315908 -3.729851 -30.911298 -5.331846 32.615069 -82.794986 77.088520 81.426428 0.000000 0.000000 0.000000 
-111.892540 77.417412 -0.468443 0.000000 0.000000 0.000000 2.856535 -69.676276 6.118020 -45.792870 -10.169653 16.617288 53.271289 -8.441628 -8.120414 -0.539383 -4.628297 -24.230986 0.000000 0.000000 0.000000 1.429980 -38.702843 -6.037492 -30.902542 -12.850026 -25.482874 55.129746 6.222389 -2.750622 -5.065688 4.191695 12.415423 0.000000 0.000000 0.000000 2.981502 -25.828243 3.397014 -3.603589 -32.093693 2.504808 19.970425 -0.861174 -6.418353 13.077599 0.129853 -5.701703 0.000000 0.000000 0.000000 8.220732 3.301394 -6.173609 0.363047 3.361166 -1.083891 0.000000 0.000000 0.000000 10.606691 -0.641833 -5.394281 -0.597982 -9.104029 -11.160632 -19.772691 -5.341107 -34.831117 -2.541667 -49.217295 2.428348 0.000000 0.000000 0.000000 10.923932 3.734164 -3.370740 1.607246 6.079322 -4.090176 -30.977852 -5.968761 32.242205 -85.698240 77.188207 84.144297 0.000000 0.000000 0.000000 
-112.775452 77.401291 -0.306107 0.000000 0.000000 0.000000 2.407072 -68.494264 5.808633 -45.981858 -9.823075 16.783534 53.286011 -8.436403 -7.825566 -0.543861 -4.768663 -23.814863 0.000000 0.000000 0.000000 1.618047 -39.143329 -5.988764 -30.701577 -13.019849 -25.534807 54.889152 6.434662 -2.845662 -5.371993 4.385135 12.426909 0.000000 0.000000 0.000000 2.625316 -26.300188 3.337810 -3.612255 -31.350111 2.501291 19.818917 -1.037890 -6.356186 12.916807 0.035277 -5.631898 0.000000 0.000000 0.000000 8.043279 3.146412 -6.187639 0.323797 3.360626 -1.127076 0.000000 0.000000 0.000000 10.311884 -0.833730 -5.477079 -0.816700 -9.125047 -11.757243 -18.944544 -5.492957 -34.981271 -2.163683 -48.722123 2.421025 0.000000 0.000000 0.000000 10.565971 3.567259 -3.380777 1.399984 5.856918 -4.421007 -31.139877 -6.573783 31.801586 -88.290433 77.254214 86.519379 0.000000 0.000000 0.000000 
-113.598404 77.482445 -0.131159 0.000000 0.000000 0.000000 2.080648 -67.170403 5.593729 -46.097558 -9.434964 16.975090 53.205432 -8.385587 -7.570016 -0.601921 -4.841514 -23.417592 0.000000 0.000000 0.000000 1.866940 -39.612669 -5.865638 -30.460683 -13.221160 -25.537954 54.620234 6.618611 -2.931913 -5.691052 4.546190 12.425390 0.000000 0.000000 0.000000 2.291876 -26.748581 3.283137 -3.559879 -30.604486 2.531953 19.666404 -1.198741 -6.270314 12.755640 -0.050192 -5.546083 0.000000 0.000000 0.000000 7.874796 3.004169 -6.185071 0.289968 3.362786 -1.161466 0.000000 0.000000 0.000000 10.016584 -1.013724 -5.536468 -1.023483 -9.142160 -12.249947 -18.191842 -5.593202 -35.145985 -1.831909 -48.205013 2.377794 0.000000 0.000000 0.000000 10.205672 3.406156 -3.381270 1.193547 5.651790 -4.715828 -31.387503 -7.152397 31.324846 -90.532880 77.289369 88.523937 0.000000 0.000000 0.000000 
